<?xml version="1.0" encoding="UTF-8"?>
<svg xmlns="http://www.w3.org/2000/svg" viewBox="0 0 743.48 744.81">
  <g fill="currentColor" transform="translate(359.53, 357.1) scale(0.03)">
    <path d="M638.15,740.18c-74.48,19.5-150.63-24.33-171.42-98.11-.25-.86-.49-1.72-.72-2.59-4.12-15.74-5.42-31.54-4.18-46.89,2.6-33,16.83-63.86,39.57-87.23,11.45-11.78,25.04-21.66,40.42-28.95,7.85-3.73,16.16-6.78,24.89-9.07,75.34-19.73,152.41,25.35,172.14,100.7,19.73,75.34-25.35,152.41-100.7,172.14h0Z"/>
    <path d="M538.8,379.05c7.33-36.22,18.9-68.02,6.31-112.28,12.68-6.45,24.61-14.94,35.28-25.49,4.49-4.44,8.62-9.11,12.39-13.97,4.34,7.99,7.5,16.52,9.09,25.57,8.29,47.16-29.81,86.07-63.07,126.17h0Z"/>
    <path d="M501.4,505.36c-2.71-5.95-4.81-12.22-6.15-18.76-8.24-40.24,16-74.3,43.55-107.55-5.46,27.03-8.58,56.53,2.48,95.5.18.63.35,1.25.54,1.87-15.37,7.29-28.97,17.16-40.42,28.95h0Z"/>
    <path d="M376.02,546.53c-27.71-24.46-49.47-50.39-94.13-61.61.77-14.21-.63-28.78-4.42-43.28-1.6-6.12-3.59-12.03-5.91-17.73,9.1.23,18.09,1.76,26.73,4.92,44.97,16.4,59.63,68.84,77.73,117.7Z"/>
    <path d="M466.73,642.07c-6.52-.63-13-1.93-19.36-4.05-38.98-12.98-56.36-51.01-71.36-91.49,20.67,18.26,44.66,35.71,83.94,45.61.62.15,1.26.32,1.88.46-1.24,15.35.06,31.15,4.18,46.89.23.87.47,1.73.72,2.59h0Z"/>
    <path d="M462.27,280.73c-20.35-2.74-40.2-9.92-58-21.55-8.25-5.38-16.07-11.74-23.29-19.03-54.75-55.38-54.25-144.67,1.13-199.42,55.39-54.75,144.67-54.24,199.43,1.14,50.31,50.88,53.96,130.4,11.25,185.44-3.77,4.86-7.9,9.53-12.39,13.97-10.67,10.55-22.6,19.04-35.28,25.49-25.8,13.11-54.78,17.77-82.84,13.96h0Z"/>
    <path d="M303.84,309.89c35.05-11.77,68.38-17.65,100.43-50.71,17.8,11.63,37.65,18.81,58,21.55-4.74,7.77-10.56,14.77-17.61,20.69-36.7,30.76-89.45,17.21-140.82,8.47h0Z"/>
    <path d="M222.39,359.78c-.47.48-.93.96-1.38,1.44-13.69-9.43-29.02-16.43-45.25-20.56,3.8-5.32,8.17-10.28,13.17-14.72,30.74-27.27,72.34-23.32,114.91-16.06-26.15,8.77-53.23,20.83-81.45,49.89h0Z"/>
    <path d="M176.78,613.78c-75.34,19.73-152.41-25.35-172.14-100.7-19.73-75.34,25.34-152.41,100.68-172.13,23.94-6.27,48.05-5.99,70.43-.28,16.23,4.13,31.57,11.13,45.25,20.56,22.07,15.17,39.92,36.66,50.54,62.69,2.32,5.69,4.31,11.61,5.91,17.73,3.8,14.5,5.2,29.08,4.42,43.28-3.18,59.6-44.28,112.92-105.11,128.85h.02Z"/>
  </g>
</svg>
