<?xml version="1.0" encoding="UTF-8"?>
<svg id="_Слой_1" data-name="Слой 1" xmlns="http://www.w3.org/2000/svg" viewBox="0 0 686.72 700">
  <defs>
    <style>
      .cls-1 {
        fill: #fff;
      }
    </style>
  </defs>
  <path class="cls-1" d="M682.67,296.06l-3.53-14.98h-325.69v137.84h194.59c-20.2,95.94-113.95,146.44-190.53,146.44-55.72,0-114.45-23.44-153.33-61.11-41.42-40.78-64.92-96.37-65.31-154.5,0-58.06,26.09-116.14,64.06-154.34s95.31-59.58,152.33-59.58c65.3,0,112.09,34.67,129.59,50.48l97.95-97.44C554.08,63.63,475.14,0,352.11,0h0c-94.92,0-185.94,36.36-252.47,102.67C33.98,167.97,0,262.39,0,350s32.16,177.31,95.78,243.13c67.98,70.19,164.27,106.87,263.41,106.87,90.2,0,175.7-35.34,236.64-99.47,59.91-63.12,90.89-150.47,90.89-242.03,0-38.55-3.88-61.44-4.05-62.44Z"/>
</svg>