<?xml version="1.0" encoding="UTF-8"?>
<svg id="_Слой_1" data-name="Слой_1" xmlns="http://www.w3.org/2000/svg" version="1.1" viewBox="0 0 1000 1000">
  <!-- Generator: Adobe Illustrator 30.1.0, SVG Export Plug-In . SVG Version: 2.1.1 Build 136)  -->
  <defs>
    <style>
      .st0 {
        fill: #f45fff;
        opacity: .6;
      }

      .st1 {
        fill: #07f;
      }
    </style>
  </defs>
  <path class="st1" d="M70.3,70.29C2.11,138.49.07,247,0,459.99c190.88,0,310.06-81.94,414.59-153.83,81.67-56.16,154.4-106.17,245.4-106.17,135.46,0,253.73,95.77,316.44,146.56,8.84,7.16,16.58,13.43,23.11,18.41-1.98-151.87-12.63-237.45-69.84-294.67C859.41,0,746.28,0,520,0h-40C253.73,0,140.59,0,70.3,70.29Z"/>
  <path class="st1" d="M450.6,999.99c9.58.01,19.38.01,29.4.01h40c10.02,0,19.82,0,29.4-.01h-98.8Z"/>
  <path class="st0" d="M999.55,364.96c-6.53-4.98-14.27-11.25-23.11-18.41-62.71-50.78-180.99-146.56-316.44-146.56-91.01,0-163.74,50.02-245.4,106.17C310.06,378.05,190.88,459.99,0,459.99v60.01c0,226.27,0,339.41,70.29,409.71,67.19,67.18,173.5,70.15,380.32,70.28h98.78c206.82-.13,313.13-3.1,380.32-70.28,70.29-70.3,70.29-183.44,70.29-409.71v-40c0-42.12,0-80.31-.45-115.04ZM224.99,625.25c0,24.71-20.29,44.75-45,44.75-12.36,0-23.61-5.01-31.77-13.11-8.16-8.1-13.23-19.29-13.23-31.64v-50.5c0-24.72,20.28-44.75,45-44.75,12.35,0,23.61,5.01,31.77,13.1,8.16,8.1,13.23,19.29,13.23,31.65v50.5ZM384.99,625.25c0,24.71-20.29,44.75-45,44.75-12.36,0-23.61-5.01-31.77-13.11-8.16-8.1-13.23-19.29-13.23-31.64v-50.5c0-24.72,20.28-44.75,45-44.75,12.35,0,23.61,5.01,31.77,13.1,8.16,8.1,13.23,19.29,13.23,31.65v50.5ZM545.01,690.25c0,24.71-20.28,44.75-45,44.75-12.35,0-23.61-5.01-31.77-13.11-8.16-8.1-13.23-19.29-13.23-31.64v-180.5c0-24.71,20.29-44.75,45-44.75,12.36,0,23.61,5.01,31.77,13.11,8.16,8.1,13.23,19.29,13.23,31.64v180.5ZM705.01,805.25c0,24.72-20.29,44.75-45,44.75-12.35,0-23.61-5.01-31.77-13.1-8.16-8.1-13.23-19.29-13.23-31.65v-410.5c0-24.71,20.29-44.75,45-44.75,12.35,0,23.61,5.01,31.77,13.11,8.16,8.1,13.23,19.29,13.23,31.64v410.5ZM865,690.25c0,24.72-20.28,44.75-45,44.75-12.36,0-23.6-5.01-31.77-13.1-8.16-8.1-13.23-19.29-13.23-31.65v-180.5c0-24.71,20.29-44.75,45-44.75,12.36,0,23.61,5.01,31.77,13.11,8.16,8.1,13.23,19.29,13.23,31.64v180.5Z"/>
</svg>