<?xml version="1.0" encoding="UTF-8"?>
<svg id="Artwork" xmlns="http://www.w3.org/2000/svg" xmlns:xlink="http://www.w3.org/1999/xlink" version="1.1" viewBox="0 0 361 361">
  <!-- Generator: Adobe Illustrator 30.1.0, SVG Export Plug-In . SVG Version: 2.1.1 Build 136)  -->
  <defs>
    <style>
      .st0 {
        fill: url(#_Безымянный_градиент_10);
        fill-rule: evenodd;
      }
    </style>
    <linearGradient id="_Безымянный_градиент_10" data-name="Безымянный градиент 10" x1="180" y1="1.39" x2="180" y2="352.23" gradientUnits="userSpaceOnUse">
      <stop offset="0" stop-color="#fb5c74"/>
      <stop offset="1" stop-color="#fa233b"/>
    </linearGradient>
  </defs>
  <path class="st0" d="M359.99,112.61h.01c0-4.3,0-8.6-.02-12.9-.02-3.62-.06-7.24-.16-10.86-.21-7.89-.68-15.84-2.08-23.64-1.42-7.92-3.75-15.29-7.41-22.49-3.6-7.07-8.3-13.53-13.91-19.14-5.61-5.61-12.08-10.31-19.15-13.91-7.19-3.66-14.56-5.98-22.47-7.41-7.8-1.4-15.76-1.87-23.65-2.08-3.62-.1-7.24-.14-10.86-.16-4.3-.02-8.6-.02-12.9-.02H112.61c-4.3,0-8.6,0-12.9.02-3.62.02-7.24.06-10.86.16-7.89.22-15.85.68-23.65,2.09-7.92,1.42-15.28,3.75-22.47,7.41-7.07,3.6-13.54,8.3-19.15,13.91-5.61,5.61-10.31,12.07-13.91,19.14-3.66,7.2-5.99,14.57-7.41,22.49-1.4,7.8-1.87,15.76-2.08,23.64-.1,3.62-.14,7.24-.16,10.86-.02,4.29-.02,8.59-.02,12.89v134.77c0,4.3,0,8.6.02,12.9.02,3.62.06,7.24.16,10.86.21,7.89.68,15.84,2.08,23.64,1.42,7.92,3.75,15.29,7.41,22.49,3.6,7.07,8.3,13.53,13.91,19.14,5.61,5.61,12.08,10.31,19.15,13.91,7.19,3.66,14.56,5.98,22.47,7.41,7.8,1.4,15.76,1.87,23.65,2.08,3.62.1,7.24.14,10.86.16,4.3.03,8.6.02,12.9.02h134.77c4.3,0,8.6,0,12.9-.02,3.62-.02,7.24-.06,10.86-.16,7.89-.21,15.85-.68,23.65-2.08,7.92-1.42,15.28-3.75,22.47-7.41,7.07-3.6,13.54-8.3,19.15-13.91,5.61-5.61,10.31-12.07,13.91-19.14,3.66-7.2,5.99-14.57,7.41-22.49,1.4-7.8,1.87-15.76,2.08-23.64.1-3.62.14-7.24.16-10.86.03-4.3.02-8.6.02-12.9V112.61ZM263.52,234.27c0,4.56-.04,8.69-1,13.26-.93,4.43-2.62,8.6-5.24,12.35-2.61,3.74-5.95,6.81-9.85,9.11-3.94,2.33-8.08,3.66-12.5,4.55-8.3,1.67-13.98,2.05-19.31.98-5.14-1.04-9.5-3.4-12.99-6.6-5.17-4.73-8.39-11.13-9.09-17.82-.82-7.84,1.78-16.21,7.67-22.38,2.97-3.12,6.7-5.58,11.68-7.51,5.21-2.02,10.96-3.23,19.8-5.01,2.33-.47,4.66-.94,6.99-1.41,3.07-.62,5.69-1.4,7.81-3.99,2.14-2.6,2.17-5.78,2.17-8.92v-79.29c0-6.07-2.73-7.72-8.52-6.61-4.15.81-93.09,18.75-93.09,18.75-5.02,1.22-6.78,2.86-6.78,9.08v116.15c0,4.56-.23,8.69-1.19,13.26-.93,4.43-2.62,8.6-5.24,12.35-2.61,3.74-5.95,6.81-9.85,9.11-3.94,2.33-8.08,3.72-12.5,4.61-8.3,1.68-13.98,2.05-19.31.98-5.14-1.03-9.5-3.46-12.99-6.66-5.17-4.73-8.18-11.13-8.88-17.82-.82-7.84,1.57-16.21,7.46-22.38,2.97-3.12,6.7-5.58,11.68-7.51,5.21-2.02,10.96-3.23,19.8-5.01,2.33-.47,4.66-.94,6.99-1.41,3.07-.62,5.69-1.4,7.81-3.99,2.12-2.59,2.37-5.63,2.37-8.76V91.81c0-1.8.15-3.02.24-3.62.43-2.82,1.56-5.24,3.6-6.95,1.69-1.42,3.88-2.41,6.67-3h.04s107-21.6,107-21.6c.93-.19,8.66-1.56,9.53-1.64,5.79-.5,9.04,3.3,9.02,9.46v169.81Z"/>
</svg>