<?xml version="1.0" encoding="UTF-8"?>
<svg id="_Слой_2" data-name="Слой 2" xmlns="http://www.w3.org/2000/svg" viewBox="0 0 100.23 96.48">
  <g id="_Слой_1-2" data-name="Слой 1">
    <g>
      <path d="M99.87,71.55c-.19.99-1.89,9.14-8.83,13.15-1.96,1.13-4.04,1.75-6.15,1.99.78-1.31,1.4-2.82,1.66-4.53.13-.82.76-5.44-2.1-8.99-.18-.22-.37-.44-.57-.65,5.26-1.05,9.8-5.34,9.54-8.57-.16-2.09-2.27-3.14-2.07-6.18.04-.52.17-2.49,1.36-2.98,1.29-.53,3.09,1.35,3.67,1.95,3.34,3.46,4.5,9.53,3.48,14.81Z"/>
      <path d="M83.25,73.2c-.24-.31-.51-.6-.8-.88-.49-.47-3.75-3.49-7.17-2.6-.16.04-.33.1-.5.16-1.21.44-2.57,1.36-2.59,2.44-.04,1.88,3.98,2.41,4.21,4.55.2,1.88-2.69,3.54-3.3,3.9-1.32.76-2.93,1.27-4.58,1.51-3.05.44-6.22-.1-7.76-1.9-.86-1.01-1.02-2.18-.85-3.42,1.38,1.02,2.86,2.59,5.42,4.12.87.52,2.93.53,3.9.25.96-.28,2.37-.76,3.16-1.25.58-.35,2.77-1.34,2.59-3.22-.22-2.14-4.36-3.19-4.32-5.07.02-1.07,1.29-2,2.42-2.44-.76-.79-1.23-1.65-1.27-2.51,0-.11,0-.22,0-.33,5.98-5.52,10.1-13.31,10.1-22.65,0-17.49-9.57-35.86-31.68-35.86-25.21,0-31.89,22.21-31.68,35.86.11,7.31,3.88,16.82,9.99,23.04l.1.1c-.31,2.88-5.36,5.68-9.95,5.68-6.19,0-12.2-5.1-11.91-8.81.16-2.09,2.27-3.14,2.07-6.18-.04-.52-.17-2.48-1.37-2.98-1.29-.53-3.09,1.35-3.66,1.94-3.34,3.46-4.5,9.54-3.48,14.82.19.99,1.88,9.14,8.83,13.14,11.82,6.81,27.59-4.87,31.99-8.12.11-.09.23-.18.34-.26-.16,2.98.2,7.97,3.52,12.3,6.95,9.07,23.04,10.17,32.39,4.29.89-.55,3.9-2.45,5.98-5.67.91-1.41,1.65-3.07,1.94-4.97.13-.82.76-5.44-2.09-8.99ZM44.74,55.64h-.07c-.58,0-1.06-.4-1.18-.96-.58-2.71-2.98-4.73-5.86-4.73s-5.27,2.02-5.86,4.73c-.12.56-.6.96-1.17.96h-.08c-.76,0-1.33-.71-1.17-1.46.81-3.84,4.21-6.72,8.29-6.72s7.48,2.88,8.29,6.72c.16.75-.4,1.46-1.17,1.46ZM56.98,54.68c-.12.56-.6.96-1.17.96h-.08c-.76,0-1.33-.71-1.17-1.46.81-3.84,4.21-6.72,8.29-6.72s7.48,2.88,8.29,6.72c.16.75-.4,1.46-1.17,1.46h-.07c-.58,0-1.06-.4-1.18-.96-.58-2.71-2.98-4.73-5.86-4.73s-5.27,2.02-5.86,4.73Z"/>
      <g>
        <path d="M16.89,44.82c.06,3.85,1.13,8.32,3.04,12.59-1.25.72-2.7,1.13-4.23,1.13-4.69,0-8.53-3.84-8.53-8.53v-19.85c0-4.69,3.84-8.53,8.53-8.53,2.35,0,4.48.96,6.03,2.51.01.01.03.03.04.04-3.68,6.77-4.96,14.56-4.87,20.65Z"/>
        <path d="M83.61,44.82c-.06,3.85-1.13,8.32-3.04,12.59,1.25.72,2.7,1.13,4.23,1.13,4.69,0,8.53-3.84,8.53-8.53v-19.85c0-4.69-3.84-8.53-8.53-8.53-2.35,0-4.48.96-6.03,2.51-.01.01-.03.03-.04.04,3.68,6.77,4.96,14.56,4.87,20.65Z"/>
        <path d="M50.24,0C27.51,0,9.08,19.37,9.08,43.26h4.65c0-21.19,16.34-38.37,36.5-38.37s36.5,17.18,36.5,38.37h4.65c0-23.89-18.43-43.26-41.16-43.26Z"/>
      </g>
    </g>
  </g>
</svg>