<?xml version="1.0" encoding="UTF-8"?>
<svg id="_Слой_2" data-name="Слой 2" xmlns="http://www.w3.org/2000/svg" viewBox="0 0 3053.46 471.8">
  <defs>
    <style>
      .cls-1 {
        fill: #6541e4;
      }
    </style>
  </defs>
  <g id="_Слой_1-2" data-name="Слой 1">
    <g>
      <path class="cls-1" d="M443,255.91c-24.19-21.37-53.64-36.71-88.34-46.04-34.71-9.33-69.25-17.3-103.63-23.92-34.39-6.61-121.92-7.75-146.11-16.43-24.19-8.67-36.28-19.85-36.28-33.51,0-24.94,22.12-66.78,60.3-66.78l156.19-4.56c35.57,0,55.43,40.05,65.63,61.41,10.19,21.37,25.05,32.05,44.57,32.05h38.72c6.94,0,14.21-2.81,21.8-8.46,7.59-5.64,11.39-14.85,11.39-27.66,0-34.27-17.84-62.85-53.52-85.73C378.03,13.39,337.95,1.95,293.49,1.95l-82.65-1.95C135.14,0,81.77,11.77,50.75,35.3,19.73,58.84,4.23,92.41,4.23,136.01c0,23.64,6.45,44.2,19.36,61.65,12.9,17.47,29.77,31.19,50.59,41.17,20.83,9.98,43.65,18.65,68.49,26.03,24.84,7.37,49.84,13.5,75,18.38,25.17,4.88,48.16,9.82,68.99,14.8,46.63,10.85,69.95,25.71,69.95,44.58,0,24.95-19.09,37.42-57.26,37.42l-113.89-2.28c-35.58,0-103.35-10.36-113.54-31.62-10.2-21.26-17.83-32.15-37.35-32.15h-1.07c-7.16,0-14.54,2.76-22.13,8.3-7.59,5.53-11.38,14.69-11.38,27.49,0,34.28,17.89,62.85,53.68,85.74,35.8,22.89,75.92,34.33,120.39,34.33l98.59,1.95c75.49,0,128.8-11.77,159.93-35.31,31.12-23.53,46.69-57.1,46.69-100.7,0-31.89-12.09-58.51-36.28-79.88Z"/>
      <path class="cls-1" d="M1505.34,11.71c-5.97-6.07-13.4-9.11-22.29-9.11h-60.52c-8.46,0-15.73,3.04-21.8,9.11-6.08,6.08-9.11,13.34-9.11,21.8v106.47c0,22.06-17.89,39.95-39.95,39.95l-184.81-.88c-22.06,0-39.95-17.89-39.95-39.95V32.63c0-8.46-2.99-15.72-8.95-21.8-5.97-6.07-13.18-9.11-21.64-9.11l-19.67.88c-8.9,0-16.38,3.04-22.45,9.11-6.08,6.08-9.11,13.34-9.11,21.8v405.1c0,8.46,3.14,15.67,9.44,21.64,6.28,5.97,13.66,8.95,22.12,8.95l38.25,1.3c8.46,0,15.67-2.88,21.64-8.63,5.96-5.74,8.95-12.85,8.95-21.31v-127.3c0-22.06,17.89-39.95,39.95-39.95l166.23-1.3c22.06,0,39.95,17.89,39.95,39.95v127.3c0,8.46,3.03,15.57,9.11,21.31,6.07,5.75,13.34,8.63,21.8,8.63h60.52c8.46,0,15.78-2.98,21.96-8.95,6.19-5.97,9.28-13.18,9.28-21.64V33.51c0-8.46-2.99-15.72-8.95-21.8Z"/>
      <path class="cls-1" d="M1718.02,94.68h283.25c8.46,0,26.55,1.59,32.52-4.37,5.97-5.97,8.95-13.18,8.95-21.64v-30.59c0-8.46-9.4-20.97-15.37-27.05-5.97-6.07-17.64-8.43-26.1-8.43h-375.17c-8.46,0-15.73,2.93-21.8,8.79-6.07,5.85-9.11,13.01-9.11,21.47v405.1c0,8.9,3.04,16.33,9.11,22.29,6.07,5.97,13.34,8.95,21.8,8.95h373.54c8.46,0,15.72-2.98,21.8-8.95,6.07-5.96,9.11-13.18,9.11-21.64v-31.24c0-8.46-.46-10.55-6.32-16.41-5.85-5.86-14.92-5.72-23.17-5.72l-269.07-1.31c-18.17,0-32.89-14.72-32.89-32.89v-30.2c0-18.17,14.76-46.65,32.93-46.65h228.44c8.46,0,20.04-5.73,26.01-11.7,5.97-5.96,6.05-17.26,6.05-25.72l-.04-16.82c0-8.46-2.98-15.67-8.95-21.64-5.97-5.97-13.18-8.95-21.64-8.95h-243.87c-21.45,0-38.83-17.39-38.83-38.83v-17.02c0-21.45,17.39-38.83,38.83-38.83Z"/>
      <path class="cls-1" d="M2712.72,94.89l310.16-.21c8.46,0,15.66-2.98,21.63-8.94,5.97-5.97,8.95-13.18,8.95-21.64v-30.59c0-8.46-2.98-15.72-8.95-21.8-5.97-6.07-13.17-9.11-21.63-9.11h-375.17c-8.46,0-15.73,2.93-21.8,8.79-6.07,5.85-9.11,13.01-9.11,21.47v405.1c0,8.9,3.04,16.33,9.11,22.29,6.07,5.97,13.34,8.95,21.8,8.95h373.54c8.46,0,15.72-2.98,21.8-8.95,6.07-5.96,9.11-13.18,9.11-21.64v-31.24c0-8.46-2.93-15.61-8.79-21.47-5.85-5.86-12.9-8.79-21.15-8.79l-301.55,2.39c-18.17,0-32.89-14.72-32.89-32.89v-30.2c0-18.17,20.49-41.29,38.66-41.29l255.62-.93c8.46,0,28.9,1.19,34.87-4.78,5.97-5.96,6.05-17.26,6.05-25.72l-.04-16.82c0-8.46-11.84-22.59-17.81-28.56-5.97-5.97-13.18-8.95-21.64-8.95l-270.78.21c-21.45,0-38.83-17.39-38.83-38.83v-17.02c0-21.45,17.39-38.83,38.83-38.83Z"/>
      <path class="cls-1" d="M789.67,1.72l-221.56,1.76c-8.46,0-15.62,3.04-21.47,9.11-5.86,6.08-8.79,13.34-8.79,21.8v405.1c0,8.46,3.04,15.68,9.11,21.64,6.07,5.97,13.34,8.95,21.8,8.95l34.46-1.76c8.46,0,15.67-2.98,21.64-8.95,5.96-5.96,8.95-13.18,8.95-21.64v-34.38c0-21.45,17.39-38.83,38.83-38.83h117.03c131.23,0,196.85-60.46,196.85-181.4S920.9,1.72,789.67,1.72ZM835.54,254.05c-18.87,12.26-46.52,18.39-82.97,18.39l-117.77.87c-18.17,0-32.89-14.72-32.89-32.89v-112.86c0-18.17,14.72-32.89,32.89-32.89l117.77-.87c36.45,0,64.1,6.13,82.97,18.39,18.88,12.26,28.31,35.9,28.31,70.93s-9.43,58.68-28.31,70.93Z"/>
      <path class="cls-1" d="M2558.82,463.3c-.54.47-1.1.89-1.67,1.29.57-.4,1.13-.83,1.67-1.29Z"/>
      <g>
        <path class="cls-1" d="M2485.69,42.83c-31.78-26.68-72.51-40.02-122.18-40.02h-220.49c-8.46,0-15.62,3.04-21.47,9.11-5.86,6.08-8.79,13.34-8.79,21.8v405.1c0,8.46,3.04,15.67,9.11,21.64,6.07,5.97,13.34,8.95,21.8,8.95h13.23c8.46,0,15.66-2.98,21.63-8.95,5.97-5.97,8.95-13.18,8.95-21.64v-138.72c34.71,18.31,8.2,60.55,139.86,59.97.07.02.14.05.22.07,5.12,1.59,10.83-1.55,7.78-4.3-24.11-21.72-77.51-27.63-75.67-82.17.18-5.45,1.64-9.64,10.76-9.64h36.05v.48h120.4c3.88,0,7.75-.55,11.46-1.67,63.34-19.1,95.02-56.43,95.02-111.98,0-45.34-15.89-81.35-47.67-108.03ZM2385.15,193.48c-17.03,8.9-36.72,13.34-59.06,13.34h-92.07c-25.7,0-46.54-20.84-46.54-46.54v-18.85c0-25.7,20.84-46.54,46.54-46.54h92.07c22.34,0,42.03,4.45,59.06,13.34,17.03,8.9,25.54,23.1,25.54,42.63s-8.51,33.73-25.54,42.62Z"/>
        <path class="cls-1" d="M2339.53,357.84c.93-11.64,69.98-8.43,118.24,0,10.62,1.85,22.8,4.41,34.14,15.58,19.3,19,31.72,58.5,19.32,77.9-12.05,18.85-43.79,12.83-63.3,0-20.98-13.79-19.84-30.19-42.16-53.66-33.06-34.77-66.89-31.71-66.24-39.81Z"/>
      </g>
    </g>
  </g>
</svg>