<?xml version="1.0" encoding="UTF-8"?>
<svg id="_Слой_2" data-name="Слой 2" xmlns="http://www.w3.org/2000/svg" viewBox="0 0 806.73 776.54">
  <defs>
    <style>
      .cls-1 {
        fill: #fff;
      }

      .cls-2 {
        opacity: .5;
      }
    </style>
  </defs>
  <g id="_Слой_1-2" data-name="Слой 1">
    <g class="cls-2">
      <path class="cls-1" d="M803.86,575.85c-1.54,8-15.17,73.6-71.08,105.82-15.8,9.1-32.48,14.1-49.48,15.98,6.3-10.52,11.25-22.67,13.39-36.45,1.02-6.61,6.1-43.75-16.87-72.34-1.42-1.78-2.95-3.52-4.6-5.22,42.35-8.44,78.84-42.95,76.78-68.99-1.32-16.79-18.3-25.28-16.64-49.73.29-4.18,1.36-20,10.96-23.95,10.4-4.26,24.88,10.86,29.51,15.67,26.9,27.86,36.19,76.71,28.01,119.22Z"/>
      <path class="cls-1" d="M670.06,589.15c-1.93-2.47-4.09-4.82-6.44-7.1-3.97-3.79-30.16-28.11-57.73-20.89-1.26.36-2.65.78-4.03,1.26-9.75,3.55-20.65,10.96-20.83,19.62-.36,15.11,32.03,19.38,33.89,36.6,1.63,15.11-21.61,28.47-26.55,31.36-10.6,6.08-23.6,10.23-36.9,12.16-24.56,3.55-50.03-.78-62.49-15.29-6.92-8.13-8.19-17.52-6.86-27.51,11.14,8.19,23,20.83,43.64,33.17,6.98,4.21,23.6,4.27,31.42,2.05,7.77-2.29,19.08-6.14,25.46-10.05,4.64-2.83,22.33-10.78,20.83-25.89-1.75-17.22-35.1-25.7-34.79-40.81.18-8.61,10.35-16.07,19.5-19.62-6.14-6.32-9.93-13.24-10.23-20.17-.06-.9,0-1.81.06-2.65,48.16-44.43,81.33-107.15,81.33-182.28,0-140.81-77.05-288.65-255-288.65-202.87,0-256.69,178.79-255,288.65.9,58.81,31.24,135.39,80.43,185.41l.84.84c-2.53,23.18-43.1,45.75-80.06,45.75-49.78,0-98.18-41.06-95.84-70.91,1.32-16.8,18.3-25.28,16.67-49.72-.3-4.21-1.38-19.99-11.02-23.96-10.35-4.27-24.86,10.84-29.5,15.65-26.91,27.87-36.18,76.75-27.99,119.25,1.5,8.01,15.17,73.56,71.09,105.77,95.11,54.84,222.07-39.19,257.47-65.38.9-.72,1.87-1.44,2.77-2.11-1.26,23.96,1.63,64.17,28.29,98.97,55.92,73.02,185.41,81.87,260.66,34.49,7.16-4.45,31.42-19.75,48.16-45.63,7.34-11.32,13.24-24.68,15.59-40.03,1.08-6.62,6.14-43.76-16.86-72.36ZM360.1,447.87h-.6c-4.64,0-8.55-3.25-9.51-7.77-4.64-21.79-23.96-38.05-47.14-38.05s-42.44,16.25-47.14,38.05c-.96,4.51-4.82,7.77-9.45,7.77h-.66c-6.14,0-10.72-5.72-9.45-11.74,6.5-30.88,33.89-54.06,66.7-54.06s60.2,23.18,66.7,54.06c1.26,6.02-3.25,11.74-9.45,11.74ZM458.64,440.1c-.96,4.51-4.82,7.77-9.45,7.77h-.66c-6.14,0-10.72-5.72-9.45-11.74,6.5-30.88,33.89-54.06,66.7-54.06s60.2,23.18,66.7,54.06c1.26,6.02-3.25,11.74-9.45,11.74h-.6c-4.64,0-8.55-3.25-9.51-7.77-4.64-21.79-23.96-38.05-47.14-38.05s-42.44,16.25-47.14,38.05Z"/>
      <g>
        <path class="cls-1" d="M135.96,360.78c.46,31.03,9.13,66.97,24.43,101.35-10.06,5.79-21.7,9.1-34.08,9.1-37.79,0-68.69-30.91-68.69-68.69v-159.75c0-37.78,30.91-68.69,68.69-68.69,18.89,0,36.06,7.72,48.51,20.18.11.11.22.22.31.32-29.63,54.45-39.92,117.17-39.18,166.18Z"/>
        <path class="cls-1" d="M672.93,360.78c-.46,31.03-9.13,66.97-24.43,101.35,10.06,5.79,21.7,9.1,34.08,9.1,37.79,0,68.69-30.91,68.69-68.69v-159.75c0-37.78-30.91-68.69-68.69-68.69-18.89,0-36.06,7.72-48.51,20.18-.11.11-.22.22-.31.32,29.63,54.45,39.92,117.17,39.18,166.18Z"/>
        <path class="cls-1" d="M404.33,0C221.38,0,73.08,155.89,73.08,348.2h37.44c0-170.57,131.54-308.85,293.81-308.85s293.81,138.28,293.81,308.85h37.44c0-192.31-148.3-348.2-331.25-348.2Z"/>
      </g>
    </g>
  </g>
</svg>